HIERARCHY
ROOT Hips
{
	OFFSET 	0.0	0.0	0.0
	CHANNELS 6 Xposition Yposition Zposition Xrotation Yrotation Zrotation
	JOINT Spine
	{
		OFFSET 	15.3169	0.0	-0.012192
		CHANNELS 3 Xrotation Yrotation Zrotation
		JOINT Spine_1
		{
			OFFSET 	15.3176	0.0	-0.012192
			CHANNELS 3 Xrotation Yrotation Zrotation
			JOINT Neck
			{
				OFFSET 	19.9142	-1e-06	1.563377
				CHANNELS 3 Xrotation Yrotation Zrotation
				JOINT Head
				{
					OFFSET 	6.926521	0.0	0.0
					CHANNELS 3 Xrotation Yrotation Zrotation
					End Site
					{
						OFFSET 	20.766598	0.0	0.0
					}
				}
				JOINT LeftShoulder
				{
					OFFSET 	-6.201691	-7.28423	0.708832
					CHANNELS 3 Xrotation Yrotation Zrotation
					JOINT LeftArm
					{
						OFFSET 	14.107998	1.3e-05	0.0
						CHANNELS 3 Xrotation Yrotation Zrotation
						JOINT LeftForeArm
						{
							OFFSET 	28.5802	0.0	0.0
							CHANNELS 3 Xrotation Yrotation Zrotation
							JOINT LeftHand
							{
								OFFSET 	27.091896	0.0	0.0
								CHANNELS 3 Xrotation Yrotation Zrotation
								JOINT Bip01_L_Finger0
								{
									OFFSET 	2.676086	3.19825	0.628212
									CHANNELS 3 Xrotation Yrotation Zrotation
									JOINT Bip01_L_Finger01
									{
										OFFSET 	2.82782	0.0	0.0
										CHANNELS 3 Xrotation Yrotation Zrotation
										JOINT Bip01_L_Finger02
										{
											OFFSET 	3.100327	0.0	0.0
											CHANNELS 3 Xrotation Yrotation Zrotation
											End Site
											{
												OFFSET 	2.683968	0.0	0.0
											}
										}
									}
								}
								JOINT Bip01_L_Finger1
								{
									OFFSET 	9.438972	2.24244	-0.203926
									CHANNELS 3 Xrotation Yrotation Zrotation
									JOINT Bip01_L_Finger11
									{
										OFFSET 	3.12896	0.0	0.0
										CHANNELS 3 Xrotation Yrotation Zrotation
										JOINT Bip01_L_Finger12
										{
											OFFSET 	2.379051	0.0	0.0
											CHANNELS 3 Xrotation Yrotation Zrotation
											End Site
											{
												OFFSET 	2.09993	0.0	0.0
											}
										}
									}
								}
								JOINT Bip01_L_Finger2
								{
									OFFSET 	9.55928	-0.145352	-0.186424
									CHANNELS 3 Xrotation Yrotation Zrotation
									JOINT Bip01_L_Finger21
									{
										OFFSET 	3.801407	0.0	0.0
										CHANNELS 3 Xrotation Yrotation Zrotation
										JOINT Bip01_L_Finger22
										{
											OFFSET 	2.848793	0.0	0.0
											CHANNELS 3 Xrotation Yrotation Zrotation
											End Site
											{
												OFFSET 	2.01886	0.0	0.0
											}
										}
									}
								}
								JOINT Bip01_L_Finger3
								{
									OFFSET 	8.993629	-2.30169	0.226974
									CHANNELS 3 Xrotation Yrotation Zrotation
									JOINT Bip01_L_Finger31
									{
										OFFSET 	3.369652	0.0	0.0
										CHANNELS 3 Xrotation Yrotation Zrotation
										JOINT Bip01_L_Finger32
										{
											OFFSET 	2.444229	0.0	0.0
											CHANNELS 3 Xrotation Yrotation Zrotation
											End Site
											{
												OFFSET 	2.057808	0.0	0.0
											}
										}
									}
								}
								JOINT Bip01_L_Finger4
								{
									OFFSET 	8.023811	-3.97473	1.201897
									CHANNELS 3 Xrotation Yrotation Zrotation
									JOINT Bip01_L_Finger41
									{
										OFFSET 	2.908783	0.0	0.0
										CHANNELS 3 Xrotation Yrotation Zrotation
										JOINT Bip01_L_Finger42
										{
											OFFSET 	1.535797	0.0	0.0
											CHANNELS 3 Xrotation Yrotation Zrotation
											End Site
											{
												OFFSET 	1.630142	0.0	0.0
											}
										}
									}
								}
							}
						}
					}
				}
				JOINT RightShoulder
				{
					OFFSET 	-6.20549	7.280139	0.70887
					CHANNELS 3 Xrotation Yrotation Zrotation
					JOINT RightArm
					{
						OFFSET 	14.107998	-1e-05	0.0
						CHANNELS 3 Xrotation Yrotation Zrotation
						JOINT RightForeArm
						{
							OFFSET 	28.5802	-1.9e-05	0.0
							CHANNELS 3 Xrotation Yrotation Zrotation
							JOINT RightHand
							{
								OFFSET 	27.092003	0.0	0.0
								CHANNELS 3 Xrotation Yrotation Zrotation
								JOINT Bip01_R_Finger0
								{
									OFFSET 	2.676079	-3.19825	0.628212
									CHANNELS 3 Xrotation Yrotation Zrotation
									JOINT Bip01_R_Finger01
									{
										OFFSET 	2.82782	0.0	0.0
										CHANNELS 3 Xrotation Yrotation Zrotation
										JOINT Bip01_R_Finger02
										{
											OFFSET 	3.100342	0.0	0.0
											CHANNELS 3 Xrotation Yrotation Zrotation
											End Site
											{
												OFFSET 	2.68396	0.0	0.0
											}
										}
									}
								}
								JOINT Bip01_R_Finger1
								{
									OFFSET 	9.438957	-2.242439	-0.203918
									CHANNELS 3 Xrotation Yrotation Zrotation
									JOINT Bip01_R_Finger11
									{
										OFFSET 	3.12896	0.0	0.0
										CHANNELS 3 Xrotation Yrotation Zrotation
										JOINT Bip01_R_Finger12
										{
											OFFSET 	2.379051	0.0	0.0
											CHANNELS 3 Xrotation Yrotation Zrotation
											End Site
											{
												OFFSET 	2.099922	0.0	0.0
											}
										}
									}
								}
								JOINT Bip01_R_Finger2
								{
									OFFSET 	9.559288	0.145353	-0.186417
									CHANNELS 3 Xrotation Yrotation Zrotation
									JOINT Bip01_R_Finger21
									{
										OFFSET 	3.801407	0.0	0.0
										CHANNELS 3 Xrotation Yrotation Zrotation
										JOINT Bip01_R_Finger22
										{
											OFFSET 	2.848793	0.0	0.0
											CHANNELS 3 Xrotation Yrotation Zrotation
											End Site
											{
												OFFSET 	2.01886	0.0	0.0
											}
										}
									}
								}
								JOINT Bip01_R_Finger3
								{
									OFFSET 	8.993629	2.301691	0.226974
									CHANNELS 3 Xrotation Yrotation Zrotation
									JOINT Bip01_R_Finger31
									{
										OFFSET 	3.369652	0.0	0.0
										CHANNELS 3 Xrotation Yrotation Zrotation
										JOINT Bip01_R_Finger32
										{
											OFFSET 	2.444221	0.0	0.0
											CHANNELS 3 Xrotation Yrotation Zrotation
											End Site
											{
												OFFSET 	2.057823	0.0	0.0
											}
										}
									}
								}
								JOINT Bip01_R_Finger4
								{
									OFFSET 	8.023811	3.97473	1.20192
									CHANNELS 3 Xrotation Yrotation Zrotation
									JOINT Bip01_R_Finger41
									{
										OFFSET 	2.908783	0.0	0.0
										CHANNELS 3 Xrotation Yrotation Zrotation
										JOINT Bip01_R_Finger42
										{
											OFFSET 	1.535797	0.0	0.0
											CHANNELS 3 Xrotation Yrotation Zrotation
											End Site
											{
												OFFSET 	1.630142	0.0	0.0
											}
										}
									}
								}
							}
						}
					}
				}
			}
		}
	}
	JOINT LeftUpLeg
	{
		OFFSET 	-12.021299	-8.83685	-0.372498
		CHANNELS 3 Xrotation Yrotation Zrotation
		JOINT LeftLeg
		{
			OFFSET 	39.9035	0.0	0.0
			CHANNELS 3 Xrotation Yrotation Zrotation
			JOINT LeftFoot
			{
				OFFSET 	39.6689	0.0	0.0
				CHANNELS 3 Xrotation Yrotation Zrotation
				JOINT Bip01_L_Toe0
				{
					OFFSET 	10.162399	-2e-06	13.629601
					CHANNELS 3 Xrotation Yrotation Zrotation
					End Site
					{
						OFFSET 	8.38147	0.0	0.0
					}
				}
			}
		}
	}
	JOINT RightUpLeg
	{
		OFFSET 	-12.021299	8.836849	-0.372444
		CHANNELS 3 Xrotation Yrotation Zrotation
		JOINT RightLeg
		{
			OFFSET 	39.9035	0.0	0.0
			CHANNELS 3 Xrotation Yrotation Zrotation
			JOINT RightFoot
			{
				OFFSET 	39.6689	0.0	0.0
				CHANNELS 3 Xrotation Yrotation Zrotation
				JOINT Bip01_R_Toe0
				{
					OFFSET 	10.162399	-2e-06	13.629601
					CHANNELS 3 Xrotation Yrotation Zrotation
					End Site
					{
						OFFSET 	8.38147	0.0	0.0
					}
				}
			}
		}
	}
}
MOTION
Frames: 5
Frame Time: 0.013889
0.269366530509 97.5814959438 0.286602493299 175.949180983 0.110350932251 -91.7238989157 0.0537545639749 -9.03837933636 0.186579142527 3.10721998292e-07 3.38286497682e-07 -1.80387633283e-08 -0.590516714116 -33.1008411772 1.74830655827 -1.43167552663 -2.46178353243 -2.16439233962 168.534619839 -19.034434334 107.752682337 37.0114625646 28.9312699093 19.1695002691 -6.32571710721e-06 43.0655590494 8.98825975177e-06 -104.242722009 9.12884796849 -0.810068775015 0.0 0.0 0.0 0.0 0.0 0.0 0.0 0.0 0.0 0.0 0.0 0.0 0.0 0.0 0.0 0.0 0.0 0.0 0.0 0.0 0.0 0.0 0.0 0.0 0.0 0.0 0.0 0.0 0.0 0.0 0.0 0.0 0.0 0.0 0.0 0.0 0.0 0.0 0.0 0.0 0.0 0.0 0.0 0.0 0.0 -164.983476865 -16.8312342994 -105.104944922 -36.5051718288 24.7151542256 -20.8526700425 -1.00850761813e-05 48.9867743197 1.20151071371e-05 109.92294555 11.4506598698 -5.80953194788 0.0 0.0 0.0 0.0 0.0 0.0 0.0 0.0 0.0 0.0 0.0 0.0 0.0 0.0 0.0 0.0 0.0 0.0 0.0 0.0 0.0 0.0 0.0 0.0 0.0 0.0 0.0 0.0 0.0 0.0 0.0 0.0 0.0 0.0 0.0 0.0 0.0 0.0 0.0 0.0 0.0 0.0 0.0 0.0 0.0 27.2683251953 29.3472883516 178.013699407 -6.2934616335e-06 35.9930556766 5.82075488592e-06 6.77415864142 -12.1886866143 3.71746618463 90.0 -9.99999994412e-07 75.0 -17.4586250827 27.8937621519 178.169456015 2.83124130924e-07 36.2689862965 9.48873535188e-06 -8.05538936551 -11.7074091315 4.65430871682 90.0 -9.99999994412e-07 75.0
0.259180603952 97.5799208854 0.280641295836 175.873006226 0.0691370805962 -91.7680752268 0.0644266296575 -8.97178957009 0.234382414828 3.01656085638e-07 2.90336589535e-07 -1.66652309163e-08 -0.611034626139 -33.1535583091 1.73422326675 -1.45145956184 -2.44348131023 -2.15928020553 168.557814788 -19.03674187 107.749700442 36.9563293428 28.9194001116 19.1721818652 -6.28112511425e-06 43.1361430448 8.96987804338e-06 -104.19051226 9.13121019515 -0.845053409761 0.0 0.0 0.0 0.0 0.0 0.0 0.0 0.0 0.0 0.0 0.0 0.0 0.0 0.0 0.0 0.0 0.0 0.0 0.0 0.0 0.0 0.0 0.0 0.0 0.0 0.0 0.0 0.0 0.0 0.0 0.0 0.0 0.0 0.0 0.0 0.0 0.0 0.0 0.0 0.0 0.0 0.0 0.0 0.0 0.0 -164.989223053 -16.8236529213 -105.094291516 -36.5093958646 24.683463334 -20.8799034246 -1.00960479999e-05 48.996777121 1.20739001695e-05 109.800934152 11.3851076593 -5.73278356496 0.0 0.0 0.0 0.0 0.0 0.0 0.0 0.0 0.0 0.0 0.0 0.0 0.0 0.0 0.0 0.0 0.0 0.0 0.0 0.0 0.0 0.0 0.0 0.0 0.0 0.0 0.0 0.0 0.0 0.0 0.0 0.0 0.0 0.0 0.0 0.0 0.0 0.0 0.0 0.0 0.0 0.0 0.0 0.0 0.0 27.264496059 29.4302914545 178.012990132 -6.15192132569e-06 35.9972472419 5.95430151813e-06 6.81552077034 -12.1722316724 3.73097405289 90.0 -9.99999994412e-07 75.0 -17.4343728992 27.8681865992 178.223444895 2.41730748329e-07 36.1179309809 9.32283349762e-06 -7.95849651095 -11.6983665569 4.66306127947 90.0 -9.99999994412e-07 75.0
0.249657713126 97.5781842942 0.275280801872 175.796012931 0.0284401489435 -91.8113827323 0.0746828585371 -8.90768969435 0.28108679661 2.92729587212e-07 2.43511616355e-07 -1.53259814978e-08 -0.63108731918 -33.2043123686 1.7207715227 -1.47073022524 -2.42440608032 -2.15415422267 168.579395204 -19.0388443357 107.746469792 36.9011854327 28.9069217061 19.1733500449 -6.23718614144e-06 43.2053215968 8.95173664582e-06 -104.142410689 9.13562925762 -0.878086855308 0.0 0.0 0.0 0.0 0.0 0.0 0.0 0.0 0.0 0.0 0.0 0.0 0.0 0.0 0.0 0.0 0.0 0.0 0.0 0.0 0.0 0.0 0.0 0.0 0.0 0.0 0.0 0.0 0.0 0.0 0.0 0.0 0.0 0.0 0.0 0.0 0.0 0.0 0.0 0.0 0.0 0.0 0.0 0.0 0.0 -164.994037309 -16.8157525215 -105.083614796 -36.5130597111 24.6524652712 -20.9054597967 -1.01059434482e-05 49.0056089084 1.21308498036e-05 109.683730889 11.3215706508 -5.65889073061 0.0 0.0 0.0 0.0 0.0 0.0 0.0 0.0 0.0 0.0 0.0 0.0 0.0 0.0 0.0 0.0 0.0 0.0 0.0 0.0 0.0 0.0 0.0 0.0 0.0 0.0 0.0 0.0 0.0 0.0 0.0 0.0 0.0 0.0 0.0 0.0 0.0 0.0 0.0 0.0 0.0 0.0 0.0 0.0 0.0 27.2611342453 29.5146279791 178.010837394 -6.01321380804e-06 36.0013324863 6.08442261651e-06 6.85608208481 -12.1552525872 3.74411778413 90.0 -9.99999994412e-07 75.0 -17.411319937 27.8462885255 178.277523899 2.01028483792e-07 35.9702330904 9.16078756453e-06 -7.86351031939 -11.6890572876 4.67105156101 90.0 -9.99999994412e-07 75.0
0.240792194994 97.5762821805 0.270515937193 175.718205296 -0.0117419230946 -91.8538300108 0.0845328145825 -8.84605944029 0.326705240842 2.83941535022e-07 1.97801620756e-07 -1.40206775731e-08 -0.650675034726 -33.253116638 1.70794720541 -1.48949161196 -2.40456524085 -2.14901449313 168.599374724 -19.0407419399 107.742991024 36.8460294561 28.893838876 19.1730118467 -6.19389761252e-06 43.2731011527 8.93383643891e-06 -104.098373278 9.14208515109 -0.909191289739 0.0 0.0 0.0 0.0 0.0 0.0 0.0 0.0 0.0 0.0 0.0 0.0 0.0 0.0 0.0 0.0 0.0 0.0 0.0 0.0 0.0 0.0 0.0 0.0 0.0 0.0 0.0 0.0 0.0 0.0 0.0 0.0 0.0 0.0 0.0 0.0 0.0 0.0 0.0 0.0 0.0 0.0 0.0 0.0 0.0 -164.997927836 -16.8075348624 -105.072914058 -36.5161608888 24.6221498653 -20.9293471773 -1.01147684689e-05 49.0132777466 1.21859677911e-05 109.571286279 11.260045482 -5.58781483107 0.0 0.0 0.0 0.0 0.0 0.0 0.0 0.0 0.0 0.0 0.0 0.0 0.0 0.0 0.0 0.0 0.0 0.0 0.0 0.0 0.0 0.0 0.0 0.0 0.0 0.0 0.0 0.0 0.0 0.0 0.0 0.0 0.0 0.0 0.0 0.0 0.0 0.0 0.0 0.0 0.0 0.0 0.0 0.0 0.0 27.2582434445 29.6002962599 178.007249169 -5.87731597621e-06 36.0053251619 6.21115436812e-06 6.89584832447 -12.1377599651 3.75690054513 90.0 -9.99999994412e-07 75.0 -17.3894640833 27.8280456352 178.331695314 1.61032371886e-07 35.8258761095 9.00255217848e-06 -7.77041660467 -11.6794900429 4.67828468371 90.0 -9.99999994412e-07 75.0
0.232578386515 97.5742105549 0.266341627589 175.639587477 -0.051411218786 -91.8954256228 0.0939858292045 -8.7868785921 0.371250539959 2.75290961075e-07 1.53196645348e-07 -1.27489816425e-08 -0.669798141581 -33.2999843774 1.69574607899 -1.50774781469 -2.38396618724 -2.14386114157 168.617766985 -19.0424348721 107.739264796 36.790859976 28.8801557923 19.1711743401 -6.15125685928e-06 43.3394881741 8.91617819409e-06 -104.058356714 9.1505575881 -0.938388191914 0.0 0.0 0.0 0.0 0.0 0.0 0.0 0.0 0.0 0.0 0.0 0.0 0.0 0.0 0.0 0.0 0.0 0.0 0.0 0.0 0.0 0.0 0.0 0.0 0.0 0.0 0.0 0.0 0.0 0.0 0.0 0.0 0.0 0.0 0.0 0.0 0.0 0.0 0.0 0.0 0.0 0.0 0.0 0.0 0.0 -165.000902841 -16.7990017075 -105.062188611 -36.5186970035 24.5925069688 -20.9515736018 -1.01225292809e-05 49.0197916969 1.22392661345e-05 109.463551451 11.2005279032 -5.51951803846 0.0 0.0 0.0 0.0 0.0 0.0 0.0 0.0 0.0 0.0 0.0 0.0 0.0 0.0 0.0 0.0 0.0 0.0 0.0 0.0 0.0 0.0 0.0 0.0 0.0 0.0 0.0 0.0 0.0 0.0 0.0 0.0 0.0 0.0 0.0 0.0 0.0 0.0 0.0 0.0 0.0 0.0 0.0 0.0 0.0 27.2558274362 29.6872945763 178.002233413 -5.74420472247e-06 36.0092390245 6.33453297112e-06 6.93482524609 -12.1197643893 3.76932553729 90.0 -9.99999994412e-07 75.0 -17.3688032948 27.8134355542 178.385961715 1.21756291756e-07 35.6848434951 8.84808263875e-06 -7.67920116044 -11.6696734469 4.68476581751 90.0 -9.99999994412e-07 75.0
